# xmcd CD database file
#
# Track frame offsets:
#	150
#	13762
#	34475
#	53805
#
# Disc length: 977 seconds
#
# Revision: 0
# Processed by: cddbd v1.5PL3 Copyright (c) Steve Scherf et al.
# Submitted via: CDex 1.50beta8
#
DISCID=2f03cf04
DTITLE=鈴木博文 - 三文楽士 付録
DYEAR=1900
DGENRE=Rock
TTITLE0=花のように
TTITLE1=Hopeless Homeless
TTITLE2=薬壜と窓
TTITLE3=滑車と振子
EXTD=
EXTT0=
EXTT1=
EXTT2=
EXTT3=
PLAYORDER=
